<?xml version="1.0" encoding="UTF-8" standalone="no"?>
<svg
   xmlns:dc="http://purl.org/dc/elements/1.1/"
   xmlns:cc="http://creativecommons.org/ns#"
   xmlns:rdf="http://www.w3.org/1999/02/22-rdf-syntax-ns#"
   xmlns:svg="http://www.w3.org/2000/svg"
   xmlns="http://www.w3.org/2000/svg"
   id="logo-scaneat"
   version="1.1"
   viewBox="0 0 50.871944 27.075239"
   height="27.075239mm"
   width="50.871944mm">
  <defs
     id="defs2" />
  <g
     id="logo-full"
     transform="translate(-4.4100096,-164.11136)">
    <g
       id="logo"
       transform="matrix(0.26458333,0,0,0.26458333,213.29871,-160.38414)">
      <g
         id="crop"
         style="stroke-width:0;stroke-miterlimit:4;stroke-dasharray:none">
        <path
           style="color:#000000;font-style:normal;font-variant:normal;font-weight:normal;font-stretch:normal;font-size:medium;line-height:normal;font-family:sans-serif;font-variant-ligatures:normal;font-variant-position:normal;font-variant-caps:normal;font-variant-numeric:normal;font-variant-alternates:normal;font-variant-east-asian:normal;font-feature-settings:normal;text-indent:0;text-align:start;text-decoration:none;text-decoration-line:none;text-decoration-style:solid;text-decoration-color:#000000;letter-spacing:normal;word-spacing:normal;text-transform:none;writing-mode:lr-tb;direction:ltr;text-orientation:mixed;dominant-baseline:auto;baseline-shift:baseline;text-anchor:start;white-space:normal;shape-padding:0;shape-margin:0;inline-size:0;clip-rule:nonzero;display:inline;overflow:visible;visibility:visible;opacity:1;isolation:auto;mix-blend-mode:normal;color-interpolation:sRGB;color-interpolation-filters:linearRGB;solid-color:#000000;solid-opacity:1;vector-effect:none;fill:#000000;fill-opacity:1;fill-rule:nonzero;stroke:#000000;stroke-width:0;stroke-linecap:butt;stroke-linejoin:miter;stroke-miterlimit:4;stroke-dasharray:none;stroke-dashoffset:0;stroke-opacity:1;color-rendering:auto;image-rendering:auto;shape-rendering:auto;text-rendering:auto;enable-background:accumulate;stop-color:#000000;stop-opacity:1"
           d="m -667.17578,1226.457 c -4.74209,0.2537 -9.13526,3.2806 -10.85156,7.9961 l -4.45899,12.2481 6.57813,2.3945 4.45703,-12.248 c 0.99452,-2.7325 3.91989,-4.0961 6.65234,-3.1016 l 12.25,4.457 2.39453,-6.5781 -12.25,-4.457 c -1.57185,-0.5721 -3.19078,-0.7955 -4.77148,-0.711 z m 49.68359,17.0567 -2.39453,6.5781 12.25,4.459 c 2.73246,0.9945 4.0961,3.9179 3.10156,6.6504 l -4.45898,12.25 6.57812,2.3945 4.45899,-12.25 c 2.28843,-6.2874 -0.99972,-13.3346 -7.28711,-15.623 z m -76.88281,35.8515 -4.45703,12.2481 c -2.28844,6.2874 0.99776,13.3366 7.28515,15.625 l 12.24805,4.457 2.39453,-6.5781 -12.24804,-4.457 c -2.73246,-0.9946 -4.09806,-3.9199 -3.10352,-6.6524 l 4.45898,-12.25 z m 73.49219,26.7481 -4.45703,12.25 c -0.99453,2.7324 -3.91989,4.0961 -6.65235,3.1015 l -12.25,-4.4589 -2.39258,6.5781 12.24805,4.459 c 6.2874,2.2884 13.3366,-0.9997 15.625,-7.2871 l 4.45703,-12.2481 z"
           id="maximize" />
      </g>
      <g
         aria-label="SCAN"
         id="scan"
         style="fill:#000000"
         transform="translate(-66.5,9.5)">
        <path
           id="path1299"
           style="letter-spacing:-1.93px"
           d="m -624.43806,1262.0458 h -6.52637 l -11.83154,-18.0376 c -0.69401,-1.0544 -1.17448,-1.8485 -1.44141,-2.3823 h -0.0801 c 0.10677,1.0143 0.16016,2.5624 0.16016,4.6445 v 15.7754 h -6.10596 v -28.708 h 6.9668 l 11.39111,17.477 c 0.52051,0.7875 1.00098,1.5682 1.44141,2.3423 h 0.0801 c -0.10677,-0.6673 -0.16016,-1.9819 -0.16016,-3.9438 v -15.8755 h 6.10596 z m -26.67913,0 h -7.04688 l -2.04199,-6.3863 h -10.20996 l -2.02197,6.3863 h -7.00684 l 10.4502,-28.708 h 7.66748 z m -10.57031,-11.3511 -3.08301,-9.6494 c -0.22689,-0.7207 -0.38704,-1.5816 -0.48047,-2.5825 h -0.16016 c -0.0667,0.8408 -0.23355,1.6749 -0.50048,2.5024 l -3.12305,9.7295 z m -18.94392,10.5805 c -2.09538,1.0143 -4.74666,1.2711 -8.12329,1.2711 -4.4043,0 -7.86768,-1.2946 -10.39014,-3.8838 -2.52246,-2.5892 -3.78369,-6.0392 -3.78369,-10.3501 0,-4.5911 1.41471,-8.3148 4.24414,-11.1709 2.84277,-2.8561 6.52637,-4.2842 11.05078,-4.2842 2.80273,0 5.16504,0.3537 7.08692,1.061 v 6.2261 c -1.92188,-1.1478 -4.11068,-1.7217 -6.56641,-1.7217 -2.69596,0 -4.87142,0.8475 -6.52637,2.5425 -1.65495,1.695 -2.48242,3.9906 -2.48242,6.8867 0,2.7761 0.78076,4.9916 2.34229,6.6465 1.56152,1.6416 3.66357,2.4624 6.30615,2.4624 2.52246,0 7.08477,-0.8812 9.18015,-2.109 z m -42.24907,-0.3304 v -6.4062 c 1.16113,0.9743 2.42236,1.7083 3.78369,2.2021 1.36133,0.4805 2.736,0.7207 4.12402,0.7207 0.81413,0 1.52148,-0.073 2.12207,-0.2202 0.61393,-0.1468 1.1211,-0.347 1.52149,-0.6006 0.41373,-0.2669 0.7207,-0.5739 0.92089,-0.9209 0.2002,-0.3603 0.3003,-0.7474 0.3003,-1.1611 0,-0.5605 -0.16016,-1.061 -0.48047,-1.5015 -0.32031,-0.4404 -0.76074,-0.8475 -1.32129,-1.2212 -0.5472,-0.3737 -1.20117,-0.734 -1.96191,-1.081 -0.76075,-0.347 -1.58155,-0.7007 -2.46241,-1.0611 -2.24219,-0.9342 -3.91715,-2.0753 -5.0249,-3.4233 -1.0944,-1.348 -1.6416,-2.9763 -1.6416,-4.8848 0,-1.4948 0.30029,-2.776 0.90088,-3.8437 0.60059,-1.0811 1.41471,-1.9686 2.44238,-2.6626 1.04101,-0.694 2.24219,-1.2012 3.60352,-1.5215 1.36133,-0.3337 2.80273,-0.5005 4.32422,-0.5005 1.49479,0 2.81607,0.093 3.96386,0.2803 1.16113,0.1735 2.22884,0.4471 3.20313,0.8208 v 5.9858 c -0.48047,-0.3337 -1.00766,-0.6273 -1.58155,-0.8808 -0.56055,-0.2536 -1.14111,-0.4605 -1.74169,-0.6207 -0.60059,-0.1735 -1.20117,-0.3002 -1.80176,-0.3803 -0.58724,-0.08 -1.14779,-0.1201 -1.68164,-0.1201 -0.73405,0 -1.40137,0.073 -2.00196,0.2202 -0.60058,0.1335 -1.10774,0.327 -1.52148,0.5805 -0.41374,0.2536 -0.73405,0.5606 -0.96094,0.9209 -0.22689,0.347 -0.34033,0.7407 -0.34033,1.1812 0,0.4805 0.12679,0.9142 0.38037,1.3013 0.25358,0.3737 0.61393,0.734 1.08106,1.081 0.46712,0.3337 1.03434,0.6673 1.70166,1.001 0.66731,0.3203 1.42138,0.654 2.2622,1.001 1.14779,0.4805 2.17546,0.9943 3.08301,1.5415 0.9209,0.5339 1.70834,1.1411 2.36231,1.8218 0.65397,0.6806 1.15445,1.4613 1.50146,2.3422 0.34701,0.8675 0.52051,1.8819 0.52051,3.043 0,1.6015 -0.30697,2.9495 -0.9209,4.044 -0.60059,1.081 -1.42139,1.9618 -2.4624,2.6425 -1.04102,0.6673 -2.25554,1.1478 -3.64356,1.4414 -1.37467,0.2937 -2.82942,0.4405 -4.36425,0.4405 -1.57487,0 -3.07634,-0.1335 -4.5044,-0.4004 -1.41471,-0.2669 -2.64258,-0.6673 -3.68359,-1.2012 z" />
        <g
           id="g103"
           transform="translate(-66.5,9.5)" />
      </g>
      <g
         aria-label="eat"
         id="eat"
         style="font-style:italic;font-size:61px;font-family:SitkaHeading-Italic, 'Sitka Heading';letter-spacing:-0.061em;fill:#88de3e">
        <path
           d="m -672.0767,1276.4111 q 2.41289,0.027 4.20222,-0.4067 1.78934,-0.4337 2.95512,-1.3013 1.16577,-0.8675 1.708,-2.1689 0.56933,-1.3284 0.56933,-3.0906 0,-0.732 -0.29822,-1.3285 -0.27111,-0.5964 -0.84045,-1.0302 -0.56933,-0.4338 -1.38266,-0.6778 -0.81334,-0.244 -1.89778,-0.244 -1.05734,0 -2.27734,0.7049 -1.19288,0.6778 -2.35866,1.9791 -1.13867,1.2742 -2.11467,3.172 -0.94889,1.8978 -1.49111,4.2836 0.488,0.027 0.92178,0.054 0.46089,0.027 0.86755,0.054 0.40667,0 0.75911,0 0.37956,0 0.67778,0 z m 1.11156,16.1582 q -0.81334,0 -1.87067,-0.2169 -1.05733,-0.1897 -2.16889,-0.6506 -1.08444,-0.488 -2.14178,-1.3014 -1.05733,-0.8133 -1.87066,-2.0333 -0.81334,-1.2471 -1.32845,-2.9551 -0.488,-1.708 -0.488,-3.9853 0,-2.1147 0.46089,-4.2294 0.488,-2.1417 1.40978,-4.0937 0.94889,-1.952 2.30444,-3.66 1.35556,-1.708 3.09067,-2.928 1.73511,-1.2472 3.82267,-1.952 2.08755,-0.732 4.55466,-0.732 1.30134,0 2.65689,0.2982 1.35556,0.2982 2.44,0.976 1.11156,0.6778 1.78934,1.7893 0.70489,1.1116 0.70489,2.684 0,1.6538 -0.59645,2.9551 -0.56933,1.3014 -1.57244,2.3045 -1.00311,1.0031 -2.35867,1.7351 -1.32844,0.7049 -2.87378,1.1658 -1.51822,0.4608 -3.172,0.6777 -1.65378,0.2169 -3.25333,0.2169 -0.488,0 -1.11156,-0.027 -0.59644,-0.054 -1.19289,-0.1084 -0.59644,-0.081 -1.13866,-0.1356 -0.54222,-0.081 -0.84045,-0.1355 -0.0542,0.2711 -0.0813,0.5964 -0.0271,0.2982 -0.0542,0.6236 0,0.2982 -0.0271,0.5693 0,0.2711 0,0.488 0,1.8164 0.37955,3.3889 0.37956,1.5724 1.24711,2.7653 0.89467,1.1658 2.30445,1.8707 1.40978,0.6778 3.44311,0.6778 1.32844,0 2.46711,-0.3254 1.16578,-0.3253 2.22311,-0.8675 1.08445,-0.5694 2.14178,-1.2743 1.05733,-0.732 2.16889,-1.4911 h 0.732 l -0.51511,2.8467 q -1.32845,0.9489 -2.57556,1.7622 -1.22,0.8134 -2.57555,1.4098 -1.32845,0.5964 -2.90089,0.9489 -1.57245,0.3524 -3.63289,0.3524 z"
           id="eat-e" />
        <path
           d="m -649.93383,1289.1804 q 0.75911,0 1.65377,-0.1897 0.92178,-0.1898 1.84356,-0.5423 0.94889,-0.3524 1.84356,-0.8946 0.89466,-0.5694 1.62666,-1.3285 l 1.87067,-8.6484 q -2.73822,0 -5.15111,0.244 -2.41289,0.2169 -4.20222,0.9489 -1.78934,0.7049 -2.81956,2.0875 -1.00311,1.3827 -1.00311,3.6871 0,1.2472 0.35244,2.1418 0.35245,0.8676 0.92178,1.4369 0.59645,0.5422 1.35556,0.8133 0.78622,0.244 1.708,0.244 z m -2.38578,3.3347 q -1.87067,0 -3.22622,-0.5693 -1.32845,-0.5965 -2.22311,-1.5454 -0.86756,-0.976 -1.30134,-2.2502 -0.40666,-1.2742 -0.40666,-2.6298 -0.0271,-2.0062 0.59644,-3.5515 0.65067,-1.5453 1.73511,-2.684 1.11156,-1.1387 2.52133,-1.9249 1.43689,-0.7862 2.98223,-1.2742 1.57244,-0.488 3.14489,-0.6778 1.59955,-0.2169 2.98222,-0.2169 0.37955,0 1.00311,0.054 0.62355,0.027 1.32844,0.1085 0.70489,0.054 1.35556,0.1355 0.67778,0.081 1.13867,0.1085 l 0.43377,-2.0605 q 0.0813,-0.3253 0.13556,-0.732 0.0542,-0.4066 0.0813,-0.8133 0.0271,-0.4338 0.0271,-0.7862 0.0271,-0.3796 0.0271,-0.6236 0,-1.0844 -0.37955,-1.8435 -0.35245,-0.7591 -1.00311,-1.2471 -0.65067,-0.488 -1.51822,-0.7049 -0.86756,-0.244 -1.84356,-0.244 -1.27422,0 -2.60267,0.4609 -1.32844,0.4608 -2.57555,1.1115 -1.22,0.6236 -2.30445,1.3013 -1.08444,0.6778 -1.84355,1.0845 h -0.976 l 0.65066,-4.5818 1.464,-0.4609 q 0.94889,-0.3253 1.89778,-0.6235 0.94889,-0.2983 2.00622,-0.5151 1.08445,-0.2169 2.30445,-0.3525 1.24711,-0.1355 2.76533,-0.1355 1.62667,0 3.19911,0.3253 1.59956,0.2982 2.84667,1.0573 1.27422,0.732 2.03333,1.9791 0.75911,1.2471 0.75911,3.1178 0,0.4338 -0.0542,1.0031 -0.0271,0.5694 -0.10844,1.1387 -0.0813,0.5693 -0.18978,1.1387 -0.0813,0.5422 -0.16267,0.9488 l -1.43689,6.3983 q -0.18977,0.7862 -0.37955,1.7622 -0.18978,0.9489 -0.35245,1.8435 -0.16266,0.8676 -0.27111,1.6267 -0.10844,0.732 -0.10844,1.0845 0,0.3253 0.13555,0.732 0.16267,0.3795 0.46089,0.732 0.32534,0.3524 0.81334,0.5964 0.51511,0.2169 1.24711,0.2169 0.18978,0 0.54222,-0.054 0.37956,-0.054 0.81333,-0.1356 0.43378,-0.1084 0.86756,-0.244 0.46089,-0.1355 0.84044,-0.3253 h 0.59645 v 1.6809 q -0.78622,0.488 -1.68089,0.8404 -0.89467,0.3525 -1.81645,0.6236 -0.92177,0.244 -1.84355,0.3524 -0.89467,0.1356 -1.73511,0.1356 -1.22,0 -1.97911,-0.4338 -0.75911,-0.4338 -1.22,-1.0845 -0.43378,-0.6506 -0.65067,-1.464 -0.18978,-0.8133 -0.29822,-1.5453 h -0.10845 q -1.19289,1.4098 -2.38577,2.3316 -1.16578,0.8946 -2.35867,1.4097 -1.16578,0.488 -2.27733,0.6778 -1.11156,0.2169 -2.11467,0.2169 z"
           id="eat-a" />
        <path
           d="m -626.63703,1292.488 q -1.27422,0 -2.35867,-0.3253 -1.08444,-0.2983 -1.89777,-0.8676 -0.81334,-0.5693 -1.27423,-1.3827 -0.43377,-0.8133 -0.43377,-1.8435 0,-0.3796 0.0813,-0.976 0.10844,-0.6236 0.244,-1.3285 0.13556,-0.7048 0.29822,-1.4097 0.16267,-0.7049 0.27111,-1.22 l 3.416,-15.9685 h -4.50044 v -1.708 q 1.35555,-0.1626 2.35867,-0.3524 1.03022,-0.2169 1.76222,-0.6507 0.75911,-0.4609 1.27422,-1.22 0.54222,-0.7862 0.86756,-2.0875 l 0.94888,-3.5245 4.33778,-0.8675 -1.708,7.9435 h 9.028 l -0.43378,2.4671 h -9.13644 l -3.03644,14.2334 q -0.0813,0.4337 -0.244,1.1386 -0.13556,0.6778 -0.29823,1.4098 -0.13555,0.7049 -0.244,1.3556 -0.10844,0.6235 -0.10844,0.976 0,0.7591 0.43378,1.3013 0.46089,0.5151 1.08444,0.8675 0.62356,0.3254 1.30133,0.488 0.70489,0.1627 1.27423,0.1627 0.37955,0 1.00311,-0.1084 0.62355,-0.1085 1.27422,-0.2711 0.67778,-0.1627 1.24711,-0.3525 0.59645,-0.1898 0.89467,-0.3253 h 0.59644 v 1.5995 q -0.40666,0.244 -1.32844,0.732 -0.92178,0.4609 -2.11467,0.9489 -1.16578,0.488 -2.46711,0.8134 -1.27422,0.3524 -2.41289,0.3524 z"
           id="eat-t" />
      </g>
    </g>
  </g>
  <metadata
     id="metadata1463">
    <rdf:RDF>
      <cc:Work
         rdf:about="">
        <dc:title></dc:title>
      </cc:Work>
    </rdf:RDF>
  </metadata>
</svg>
