<?xml version="1.0" encoding="UTF-8" standalone="no"?>
<svg
   xmlns:dc="http://purl.org/dc/elements/1.1/"
   xmlns:cc="http://creativecommons.org/ns#"
   xmlns:rdf="http://www.w3.org/1999/02/22-rdf-syntax-ns#"
   xmlns:svg="http://www.w3.org/2000/svg"
   xmlns="http://www.w3.org/2000/svg"
   xmlns:sodipodi="http://sodipodi.sourceforge.net/DTD/sodipodi-0.dtd"
   xmlns:inkscape="http://www.inkscape.org/namespaces/inkscape"
   width="51.599304mm"
   height="27.075348mm"
   viewBox="0 0 51.599304 27.075348"
   version="1.1"
   id="svg8"
   sodipodi:docname="scaneat-grey.svg"
   inkscape:version="1.0.1 (3bc2e81, 2020-09-07)">
  <sodipodi:namedview
     pagecolor="#ffffff"
     bordercolor="#666666"
     borderopacity="1"
     objecttolerance="10"
     gridtolerance="10"
     guidetolerance="10"
     inkscape:pageopacity="0"
     inkscape:pageshadow="2"
     inkscape:window-width="1920"
     inkscape:window-height="1027"
     id="namedview907"
     showgrid="false"
     inkscape:zoom="5.7825025"
     inkscape:cx="98.182651"
     inkscape:cy="53.729665"
     inkscape:window-x="0"
     inkscape:window-y="0"
     inkscape:window-maximized="1"
     inkscape:current-layer="g88" />
  <defs
     id="defs2" />
  <metadata
     id="metadata5">
    <rdf:RDF>
      <cc:Work
         rdf:about="">
        <dc:format>image/svg+xml</dc:format>
        <dc:type
           rdf:resource="http://purl.org/dc/dcmitype/StillImage" />
        <dc:title></dc:title>
      </cc:Work>
    </rdf:RDF>
  </metadata>
  <g
     id="layer1"
     transform="translate(-3.6824921,-164.11114)">
    <g
       id="Group_35"
       data-name="Group 35"
       transform="matrix(0.26458333,0,0,0.26458333,213.29871,-160.38414)">
      <g
         id="g106">
        <path
           style="color:#000000;font-style:normal;font-variant:normal;font-weight:normal;font-stretch:normal;font-size:medium;line-height:normal;font-family:sans-serif;font-variant-ligatures:normal;font-variant-position:normal;font-variant-caps:normal;font-variant-numeric:normal;font-variant-alternates:normal;font-variant-east-asian:normal;font-feature-settings:normal;font-variation-settings:normal;text-indent:0;text-align:start;text-decoration:none;text-decoration-line:none;text-decoration-style:solid;text-decoration-color:#000000;letter-spacing:normal;word-spacing:normal;text-transform:none;writing-mode:lr-tb;direction:ltr;text-orientation:mixed;dominant-baseline:auto;baseline-shift:baseline;text-anchor:start;white-space:normal;shape-padding:0;shape-margin:0;inline-size:0;clip-rule:nonzero;display:inline;overflow:visible;visibility:visible;isolation:auto;mix-blend-mode:normal;color-interpolation:sRGB;color-interpolation-filters:linearRGB;solid-color:#000000;solid-opacity:1;vector-effect:none;fill:#303030;fill-opacity:1;fill-rule:nonzero;stroke:none;stroke-linecap:butt;stroke-linejoin:miter;stroke-miterlimit:4;stroke-dasharray:none;stroke-dashoffset:0;stroke-opacity:1;color-rendering:auto;image-rendering:auto;shape-rendering:auto;text-rendering:auto;enable-background:accumulate;stop-color:#000000;stop-opacity:1;opacity:1"
           d="M -667.17578 1226.457 C -671.91787 1226.7107 -676.31104 1229.7376 -678.02734 1234.4531 L -682.48633 1246.7012 L -675.9082 1249.0957 L -671.45117 1236.8477 C -670.45665 1234.1152 -667.53128 1232.7516 -664.79883 1233.7461 L -652.54883 1238.2031 L -650.1543 1231.625 L -662.4043 1227.168 C -663.97615 1226.5959 -665.59508 1226.3725 -667.17578 1226.457 z M -617.49219 1243.5137 L -619.88672 1250.0918 L -607.63672 1254.5508 C -604.90426 1255.5453 -603.54062 1258.4687 -604.53516 1261.2012 L -608.99414 1273.4512 L -602.41602 1275.8457 L -597.95703 1263.5957 C -595.6686 1257.3083 -598.95675 1250.2611 -605.24414 1247.9727 L -617.49219 1243.5137 z M -694.375 1279.3652 L -698.83203 1291.6133 C -701.12047 1297.9007 -697.83427 1304.9499 -691.54688 1307.2383 L -679.29883 1311.6953 L -676.9043 1305.1172 L -689.15234 1300.6602 C -691.8848 1299.6656 -693.2504 1296.7403 -692.25586 1294.0078 L -687.79688 1281.7578 L -694.375 1279.3652 z M -620.88281 1306.1133 L -625.33984 1318.3633 C -626.33437 1321.0957 -629.25973 1322.4594 -631.99219 1321.4648 L -644.24219 1317.0059 L -646.63477 1323.584 L -634.38672 1328.043 C -628.09932 1330.3314 -621.05012 1327.0433 -618.76172 1320.7559 L -614.30469 1308.5078 L -620.88281 1306.1133 z "
           id="maximize" />
      </g>
      <g
         aria-label="SCAN"
         id="Scan"
         style="font-weight:700;font-size:42px;font-family:SegoeUI-Bold, 'Segoe UI';letter-spacing:-0.065em;fill:#303030">
        <g
           id="g103">
          <path
             d="m -792.12726,1270.8721 v -6.5625 q 1.78418,1.497 3.87598,2.2558 2.0918,0.7383 4.22461,0.7383 1.25097,0 2.17383,-0.2256 0.94336,-0.2256 1.55859,-0.6152 0.63574,-0.4102 0.94336,-0.9434 0.30762,-0.5537 0.30762,-1.1894 0,-0.8613 -0.49219,-1.5381 -0.49219,-0.6768 -1.35352,-1.251 -0.84082,-0.5742 -2.00976,-1.1074 -1.16895,-0.5332 -2.52246,-1.0869 -3.44532,-1.4356 -5.14746,-3.5069 -1.68165,-2.0712 -1.68165,-5.0039 0,-2.2968 0.92286,-3.9375 0.92285,-1.6611 2.50195,-2.7275 1.59961,-1.0664 3.69141,-1.5586 2.09179,-0.5127 4.42968,-0.5127 2.29688,0 4.06055,0.2871 1.78418,0.2666 3.28125,0.8408 v 6.1319 q -0.73828,-0.5127 -1.62012,-0.9024 -0.86133,-0.3896 -1.78418,-0.6357 -0.92285,-0.2666 -1.8457,-0.3897 -0.90234,-0.123 -1.72266,-0.123 -1.12793,0 -2.05078,0.2256 -0.92285,0.2051 -1.55859,0.5947 -0.63574,0.3897 -0.98438,0.9434 -0.34863,0.5332 -0.34863,1.2099 0,0.7383 0.38965,1.333 0.38965,0.5743 1.10742,1.1075 0.71777,0.5127 1.74317,1.0253 1.02539,0.4922 2.31738,1.0254 1.76367,0.7383 3.1582,1.5791 1.41504,0.8204 2.41992,1.8663 1.00489,1.0458 1.53809,2.3994 0.5332,1.333 0.5332,3.1172 0,2.4609 -0.94336,4.1425 -0.92285,1.6612 -2.52246,2.7071 -1.59961,1.0254 -3.73242,1.4765 -2.1123,0.4512 -4.4707,0.4512 -2.41992,0 -4.61426,-0.4102 -2.17383,-0.4101 -3.77344,-1.2304 z"
             id="path90" />
          <path
             d="m -749.25703,1270.9557 q -3.21973,1.5586 -8.40821,1.5586 -6.76757,0 -10.64355,-3.9785 -3.87598,-3.9785 -3.87598,-10.6026 0,-7.0546 4.34766,-11.4433 4.36816,-4.3887 11.32031,-4.3887 4.30664,0 7.25977,1.0869 v 6.378 q -2.95313,-1.7637 -6.72656,-1.7637 -4.14258,0 -6.68555,2.6045 -2.54297,2.6045 -2.54297,7.0547 0,4.2656 2.39941,6.8086 2.39942,2.5224 6.45996,2.5224 3.87598,0 7.09571,-1.8867 z"
             id="path92" />
          <path
             d="m -720.24339,1272 h -7.21875 l -2.09179,-6.542 h -10.45899 l -2.07129,6.542 h -7.17773 l 10.70508,-29.4082 h 7.85449 z m -10.82812,-11.6279 -3.15821,-9.8848 q -0.34863,-1.1074 -0.49218,-2.6455 h -0.16407 q -0.10253,1.292 -0.51269,2.5635 l -3.19922,9.9668 z"
             id="path94" />
          <path
             d="m -693.22546,1272 h -6.68555 l -12.12012,-18.4775 q -1.0664,-1.6202 -1.47656,-2.4405 h -0.082 q 0.16406,1.5586 0.16406,4.7578 V 1272 h -6.25488 v -29.4082 h 7.13672 l 11.66894,17.9033 q 0.79981,1.21 1.47657,2.3994 h 0.082 q -0.16406,-1.0254 -0.16406,-4.04 v -16.2627 h 6.25488 z"
             style="letter-spacing:-0.132em"
             id="path96" />
        </g>
      </g>
      <g
         aria-label="eat"
         id="eat"
         style="font-style:italic;font-size:61px;font-family:SitkaHeading-Italic, 'Sitka Heading';letter-spacing:-0.061em;fill:#88de3e">
        <g
           id="g88">
          <path
             d="m -672.0767,1276.4111 q 2.41289,0.027 4.20222,-0.4067 1.78934,-0.4337 2.95512,-1.3013 1.16577,-0.8675 1.708,-2.1689 0.56933,-1.3284 0.56933,-3.0906 0,-0.732 -0.29822,-1.3285 -0.27111,-0.5964 -0.84045,-1.0302 -0.56933,-0.4338 -1.38266,-0.6778 -0.81334,-0.244 -1.89778,-0.244 -1.05734,0 -2.27734,0.7049 -1.19288,0.6778 -2.35866,1.9791 -1.13867,1.2742 -2.11467,3.172 -0.94889,1.8978 -1.49111,4.2836 0.488,0.027 0.92178,0.054 0.46089,0.027 0.86755,0.054 0.40667,0 0.75911,0 0.37956,0 0.67778,0 z m 1.11156,16.1582 q -0.81334,0 -1.87067,-0.2169 -1.05733,-0.1897 -2.16889,-0.6506 -1.08444,-0.488 -2.14178,-1.3014 -1.05733,-0.8133 -1.87066,-2.0333 -0.81334,-1.2471 -1.32845,-2.9551 -0.488,-1.708 -0.488,-3.9853 0,-2.1147 0.46089,-4.2294 0.488,-2.1417 1.40978,-4.0937 0.94889,-1.952 2.30444,-3.66 1.35556,-1.708 3.09067,-2.928 1.73511,-1.2472 3.82267,-1.952 2.08755,-0.732 4.55466,-0.732 1.30134,0 2.65689,0.2982 1.35556,0.2982 2.44,0.976 1.11156,0.6778 1.78934,1.7893 0.70489,1.1116 0.70489,2.684 0,1.6538 -0.59645,2.9551 -0.56933,1.3014 -1.57244,2.3045 -1.00311,1.0031 -2.35867,1.7351 -1.32844,0.7049 -2.87378,1.1658 -1.51822,0.4608 -3.172,0.6777 -1.65378,0.2169 -3.25333,0.2169 -0.488,0 -1.11156,-0.027 -0.59644,-0.054 -1.19289,-0.1084 -0.59644,-0.081 -1.13866,-0.1356 -0.54222,-0.081 -0.84045,-0.1355 -0.0542,0.2711 -0.0813,0.5964 -0.0271,0.2982 -0.0542,0.6236 0,0.2982 -0.0271,0.5693 0,0.2711 0,0.488 0,1.8164 0.37955,3.3889 0.37956,1.5724 1.24711,2.7653 0.89467,1.1658 2.30445,1.8707 1.40978,0.6778 3.44311,0.6778 1.32844,0 2.46711,-0.3254 1.16578,-0.3253 2.22311,-0.8675 1.08445,-0.5694 2.14178,-1.2743 1.05733,-0.732 2.16889,-1.4911 h 0.732 l -0.51511,2.8467 q -1.32845,0.9489 -2.57556,1.7622 -1.22,0.8134 -2.57555,1.4098 -1.32845,0.5964 -2.90089,0.9489 -1.57245,0.3524 -3.63289,0.3524 z"
             id="path78"
             style="fill:#303030;fill-opacity:1" />
          <path
             d="m -649.93383,1289.1804 q 0.75911,0 1.65377,-0.1897 0.92178,-0.1898 1.84356,-0.5423 0.94889,-0.3524 1.84356,-0.8946 0.89466,-0.5694 1.62666,-1.3285 l 1.87067,-8.6484 q -2.73822,0 -5.15111,0.244 -2.41289,0.2169 -4.20222,0.9489 -1.78934,0.7049 -2.81956,2.0875 -1.00311,1.3827 -1.00311,3.6871 0,1.2472 0.35244,2.1418 0.35245,0.8676 0.92178,1.4369 0.59645,0.5422 1.35556,0.8133 0.78622,0.244 1.708,0.244 z m -2.38578,3.3347 q -1.87067,0 -3.22622,-0.5693 -1.32845,-0.5965 -2.22311,-1.5454 -0.86756,-0.976 -1.30134,-2.2502 -0.40666,-1.2742 -0.40666,-2.6298 -0.0271,-2.0062 0.59644,-3.5515 0.65067,-1.5453 1.73511,-2.684 1.11156,-1.1387 2.52133,-1.9249 1.43689,-0.7862 2.98223,-1.2742 1.57244,-0.488 3.14489,-0.6778 1.59955,-0.2169 2.98222,-0.2169 0.37955,0 1.00311,0.054 0.62355,0.027 1.32844,0.1085 0.70489,0.054 1.35556,0.1355 0.67778,0.081 1.13867,0.1085 l 0.43377,-2.0605 q 0.0813,-0.3253 0.13556,-0.732 0.0542,-0.4066 0.0813,-0.8133 0.0271,-0.4338 0.0271,-0.7862 0.0271,-0.3796 0.0271,-0.6236 0,-1.0844 -0.37955,-1.8435 -0.35245,-0.7591 -1.00311,-1.2471 -0.65067,-0.488 -1.51822,-0.7049 -0.86756,-0.244 -1.84356,-0.244 -1.27422,0 -2.60267,0.4609 -1.32844,0.4608 -2.57555,1.1115 -1.22,0.6236 -2.30445,1.3013 -1.08444,0.6778 -1.84355,1.0845 h -0.976 l 0.65066,-4.5818 1.464,-0.4609 q 0.94889,-0.3253 1.89778,-0.6235 0.94889,-0.2983 2.00622,-0.5151 1.08445,-0.2169 2.30445,-0.3525 1.24711,-0.1355 2.76533,-0.1355 1.62667,0 3.19911,0.3253 1.59956,0.2982 2.84667,1.0573 1.27422,0.732 2.03333,1.9791 0.75911,1.2471 0.75911,3.1178 0,0.4338 -0.0542,1.0031 -0.0271,0.5694 -0.10844,1.1387 -0.0813,0.5693 -0.18978,1.1387 -0.0813,0.5422 -0.16267,0.9488 l -1.43689,6.3983 q -0.18977,0.7862 -0.37955,1.7622 -0.18978,0.9489 -0.35245,1.8435 -0.16266,0.8676 -0.27111,1.6267 -0.10844,0.732 -0.10844,1.0845 0,0.3253 0.13555,0.732 0.16267,0.3795 0.46089,0.732 0.32534,0.3524 0.81334,0.5964 0.51511,0.2169 1.24711,0.2169 0.18978,0 0.54222,-0.054 0.37956,-0.054 0.81333,-0.1356 0.43378,-0.1084 0.86756,-0.244 0.46089,-0.1355 0.84044,-0.3253 h 0.59645 v 1.6809 q -0.78622,0.488 -1.68089,0.8404 -0.89467,0.3525 -1.81645,0.6236 -0.92177,0.244 -1.84355,0.3524 -0.89467,0.1356 -1.73511,0.1356 -1.22,0 -1.97911,-0.4338 -0.75911,-0.4338 -1.22,-1.0845 -0.43378,-0.6506 -0.65067,-1.464 -0.18978,-0.8133 -0.29822,-1.5453 h -0.10845 q -1.19289,1.4098 -2.38577,2.3316 -1.16578,0.8946 -2.35867,1.4097 -1.16578,0.488 -2.27733,0.6778 -1.11156,0.2169 -2.11467,0.2169 z"
             id="path80"
             style="fill:#303030;fill-opacity:1" />
          <path
             d="m -625.83738,1292.488 q -1.27422,0 -2.35867,-0.3253 -1.08444,-0.2983 -1.89777,-0.8676 -0.81334,-0.5693 -1.27423,-1.3827 -0.43377,-0.8133 -0.43377,-1.8435 0,-0.3796 0.0813,-0.976 0.10844,-0.6236 0.244,-1.3285 0.13556,-0.7048 0.29822,-1.4097 0.16267,-0.7049 0.27111,-1.22 l 3.416,-15.9685 h -4.50044 v -1.708 q 1.35555,-0.1626 2.35867,-0.3524 1.03022,-0.2169 1.76222,-0.6507 0.75911,-0.4609 1.27422,-1.22 0.54222,-0.7862 0.86756,-2.0875 l 0.94888,-3.5245 4.33778,-0.8675 -1.708,7.9435 h 9.028 l -0.43378,2.4671 h -9.13644 l -3.03644,14.2334 q -0.0813,0.4337 -0.244,1.1386 -0.13556,0.6778 -0.29823,1.4098 -0.13555,0.7049 -0.244,1.3556 -0.10844,0.6235 -0.10844,0.976 0,0.7591 0.43378,1.3013 0.46089,0.5151 1.08444,0.8675 0.62356,0.3254 1.30133,0.488 0.70489,0.1627 1.27423,0.1627 0.37955,0 1.00311,-0.1084 0.62355,-0.1085 1.27422,-0.2711 0.67778,-0.1627 1.24711,-0.3525 0.59645,-0.1898 0.89467,-0.3253 h 0.59644 v 1.5995 q -0.40666,0.244 -1.32844,0.732 -0.92178,0.4609 -2.11467,0.9489 -1.16578,0.488 -2.46711,0.8134 -1.27422,0.3524 -2.41289,0.3524 z"
             id="path82"
             style="fill:#303030;fill-opacity:1" />
        </g>
      </g>
    </g>
  </g>
</svg>
